<svg width="33" height="33" viewBox="0 0 33 33" fill="none" xmlns="http://www.w3.org/2000/svg">
<g clip-path="url(#clip0_2_28)">
<path d="M16.5 0C7.392 0 0 7.392 0 16.5C0 25.608 7.392 33 16.5 33C25.608 33 33 25.608 33 16.5C33 7.392 25.608 0 16.5 0ZM15.7213 1.36799C15.7306 1.36752 15.7401 1.36844 15.7494 1.36799L15.8195 2.48693C14.8678 2.5323 13.9416 2.67109 13.0485 2.89732L13.3256 3.9882C10.9814 4.58198 8.89338 5.81648 7.25733 7.49586L6.45408 6.71014C5.80078 7.38037 5.21671 8.11659 4.70727 8.90593L3.76722 8.28508C6.33467 4.31533 10.708 1.62238 15.7213 1.36799ZM17.2506 1.36799C22.2756 1.6138 26.6606 4.30797 29.2328 8.28508L28.2927 8.90593C27.7844 8.11858 27.2009 7.38247 26.5494 6.71365L25.7462 7.49586C24.1099 5.81558 22.0194 4.58218 19.6744 3.9882L19.9515 2.89732C19.0584 2.67109 18.1322 2.5323 17.1805 2.48693L17.2506 1.36799ZM16.5 6.31378C16.977 6.31268 17.4541 6.34184 17.8469 6.39796L17.2331 11.5051C18.5234 11.6933 19.6546 12.3685 20.4356 13.3396L24.5325 10.2669C25.0302 10.8868 25.5943 11.8594 25.89 12.596L21.1827 14.6094C21.4193 15.1939 21.551 15.8309 21.551 16.5C21.551 17.1446 21.4312 17.7605 21.2108 18.3275L25.8795 20.3233C25.5914 21.0643 25.0331 22.0351 24.543 22.6594L20.4742 19.6148C19.6943 20.608 18.55 21.3016 17.2436 21.4949L17.8469 26.5179C17.0612 26.6389 15.9388 26.6371 15.1531 26.5249L15.7564 21.4949C14.449 21.3015 13.3058 20.6057 12.5258 19.6113L8.46748 22.6559C7.96983 22.036 7.40566 21.0634 7.11001 20.3268L11.7892 18.324C11.5696 17.7579 11.449 17.1434 11.449 16.5C11.449 15.8298 11.5799 15.1913 11.8173 14.6059L7.12054 12.5995C7.4086 11.8585 7.96689 10.8877 8.45695 10.2634L12.5644 13.3396C13.3454 12.3685 14.4766 11.6933 15.7669 11.5051L15.1531 6.40497C15.5459 6.34448 16.023 6.31487 16.5 6.31378ZM3.01658 9.58291L4.02679 10.081C3.60072 10.907 3.25236 11.7791 2.99554 12.6907L4.07589 12.9959C3.76182 14.1104 3.59184 15.2854 3.59184 16.5C3.59184 17.7158 3.76123 18.8921 4.07589 20.0077L2.99554 20.3128C3.25218 21.2229 3.60124 22.0943 4.02679 22.919L3.01658 23.4171C1.94968 21.343 1.34694 18.9915 1.34694 16.5C1.34694 14.0085 1.94968 11.657 3.01658 9.58291ZM29.9834 9.58291C31.0503 11.657 31.6531 14.0085 31.6531 16.5C31.6531 18.9915 31.0503 21.343 29.9834 23.4171L28.9732 22.919C29.3989 22.094 29.7477 21.2232 30.0045 20.3128L28.9241 20.0077C29.2388 18.8921 29.4082 17.7158 29.4082 16.5C29.4082 15.2854 29.2382 14.1104 28.9241 12.9959L30.0045 12.6907C29.7477 11.7794 29.3991 10.9068 28.9732 10.081L29.9834 9.58291ZM4.70727 24.0941C5.2169 24.8834 5.80075 25.6196 6.45408 26.2899L7.25733 25.5041C8.89338 27.1835 10.9814 28.418 13.3256 29.0118L13.0485 30.1027C13.9416 30.3289 14.8678 30.4677 15.8195 30.5131L15.7494 31.632C10.7244 31.3862 6.33943 28.692 3.76722 24.7149L4.70727 24.0941ZM28.2962 24.0941L29.2328 24.7149C26.6606 28.692 22.2756 31.3862 17.2506 31.632L17.1805 30.5131C18.1322 30.4677 19.0584 30.3289 19.9515 30.1027L19.6744 29.0118C22.0194 28.4178 24.1099 27.1844 25.7462 25.5041L26.5494 26.2864C27.2017 25.6167 27.7873 24.8825 28.2962 24.0941Z" fill="white"/>
</g>
<defs>
<clipPath id="clip0_2_28">
<rect width="33" height="33" fill="white"/>
</clipPath>
</defs>
</svg>
