<svg width="37" height="37" viewBox="0 0 37 37" fill="none" xmlns="http://www.w3.org/2000/svg">
<path fill-rule="evenodd" clip-rule="evenodd" d="M19.7907 34.2311L19.7722 34.2342L19.6628 34.2881L19.6319 34.2943L19.6104 34.2881L19.5009 34.2326C19.4845 34.2285 19.4721 34.2316 19.4639 34.2419L19.4577 34.2573L19.4315 34.9171L19.4392 34.9479L19.4547 34.968L19.615 35.0821L19.6381 35.0882L19.6566 35.0821L19.8169 34.968L19.8354 34.9433L19.8416 34.9171L19.8154 34.2588C19.8113 34.2424 19.8031 34.2331 19.7907 34.2311ZM20.1977 34.0569L20.1762 34.0599L19.8925 34.2033L19.8771 34.2187L19.8724 34.2357L19.9002 34.8986L19.9079 34.9171L19.9202 34.9294L20.2301 35.0713C20.2496 35.0764 20.2645 35.0723 20.2748 35.0589L20.281 35.0374L20.2286 34.0908C20.2234 34.0713 20.2132 34.0599 20.1977 34.0569ZM19.0954 34.0599C19.0887 34.0558 19.0805 34.0545 19.0728 34.0562C19.065 34.0579 19.0582 34.0626 19.0538 34.0692L19.0446 34.0908L18.9922 35.0374C18.9932 35.0559 19.0019 35.0682 19.0184 35.0744L19.0415 35.0713L19.3514 34.9279L19.3668 34.9156L19.3714 34.8986L19.3992 34.2357L19.3945 34.2172L19.3791 34.2018L19.0954 34.0599Z" fill="white"/>
<path fill-rule="evenodd" clip-rule="evenodd" d="M28.125 3C29.3047 2.99993 30.4398 3.45067 31.2982 4.25998C32.1565 5.06929 32.6731 6.176 32.7423 7.35367L32.75 7.625V26.125C32.7501 27.3047 32.2993 28.4398 31.49 29.2982C30.6807 30.1565 29.574 30.6731 28.3963 30.7423L28.125 30.75H9.625C8.4453 30.7501 7.31016 30.2993 6.45185 29.49C5.59353 28.6807 5.07692 27.574 5.00771 26.3963L5 26.125V7.625C4.99993 6.4453 5.45067 5.31016 6.25998 4.45185C7.06929 3.59353 8.176 3.07692 9.35367 3.00771L9.625 3H28.125ZM13.4792 19.9583C12.9043 19.9584 12.3501 20.1725 11.9245 20.559C11.499 20.9455 11.2326 21.4766 11.1775 22.0488L11.1667 22.2708L11.1775 22.5082C11.2329 23.0802 11.4994 23.6111 11.9249 23.9974C12.3504 24.3836 12.9045 24.5976 13.4792 24.5976C14.0538 24.5976 14.6079 24.3836 15.0335 23.9974C15.459 23.6111 15.7254 23.0802 15.7809 22.5082L15.7917 22.2862L15.7809 22.0488C15.7257 21.4766 15.4594 20.9455 15.0338 20.559C14.6083 20.1725 14.054 19.9584 13.4792 19.9583ZM24.2708 19.9583C23.696 19.9584 23.1417 20.1725 22.7162 20.559C22.2906 20.9455 22.0243 21.4766 21.9691 22.0488L21.9583 22.2862C21.9586 22.8801 22.1874 23.4511 22.5972 23.8809C23.007 24.3107 23.5665 24.5664 24.1597 24.5949C24.7529 24.6235 25.3343 24.4227 25.7835 24.0342C26.2327 23.6458 26.5152 23.0994 26.5725 22.5082L26.5833 22.2708C26.5833 21.6575 26.3397 21.0693 25.906 20.6356C25.4723 20.202 24.8841 19.9583 24.2708 19.9583ZM18.875 14.5625C18.3001 14.5625 17.7459 14.7767 17.3204 15.1632C16.8948 15.5497 16.6285 16.0808 16.5733 16.653L16.5625 16.8904C16.5628 17.4843 16.7916 18.0553 17.2014 18.4851C17.6112 18.9149 18.1707 19.1706 18.7639 19.1991C19.3571 19.2276 19.9385 19.0269 20.3877 18.6384C20.8369 18.2499 21.1194 17.7035 21.1767 17.1124L21.1875 16.875C21.1875 16.2617 20.9439 15.6735 20.5102 15.2398C20.0765 14.8061 19.4883 14.5625 18.875 14.5625ZM13.4792 9.16667C12.9043 9.16669 12.3501 9.38083 11.9245 9.76733C11.499 10.1538 11.2326 10.685 11.1775 11.2572L11.1667 11.4792L11.1775 11.7166C11.2329 12.2886 11.4994 12.8194 11.9249 13.2057C12.3504 13.592 12.9045 13.8059 13.4792 13.8059C14.0538 13.8059 14.6079 13.592 15.0335 13.2057C15.459 12.8194 15.7254 12.2886 15.7809 11.7166L15.7917 11.4946L15.7809 11.2572C15.7257 10.685 15.4594 10.1538 15.0338 9.76733C14.6083 9.38083 14.054 9.16669 13.4792 9.16667ZM24.2708 9.16667C23.696 9.16669 23.1417 9.38083 22.7162 9.76733C22.2906 10.1538 22.0243 10.685 21.9691 11.2572L21.9583 11.4946C21.9586 12.0885 22.1874 12.6595 22.5972 13.0893C23.007 13.5191 23.5665 13.7747 24.1597 13.8033C24.7529 13.8318 25.3343 13.631 25.7835 13.2426C26.2327 12.8541 26.5152 12.3077 26.5725 11.7166L26.5833 11.4792C26.5833 10.8659 26.3397 10.2777 25.906 9.84398C25.4723 9.4103 24.8841 9.16667 24.2708 9.16667Z" fill="white"/>
</svg>
