<svg width="32" height="32" viewBox="0 0 32 32" fill="none" xmlns="http://www.w3.org/2000/svg">
<g clip-path="url(#clip0_2_25)">
<path d="M0.791466 15.5719C0.979733 10.5806 3.50923 5.97709 8.13333 2.93507C8.14699 2.94019 8.26677 2.89656 8.21205 3.00013C7.84576 3.33976 1.26037 11.119 7.32203 17.2593C7.32203 17.2593 10.5069 20.3211 12.9765 17.4159C12.9765 17.4159 15.4135 14.261 12.9457 9.47853C12.9457 9.47853 12.3211 7.91693 10.0705 6.94829L11.883 4.94851C11.883 4.94851 13.4146 5.60568 14.6006 7.38808C14.6006 7.38808 14.6639 5.51149 13.2263 3.51181L16.0365 0.323547L18.8183 3.48184C18.8183 3.48184 17.5391 5.29421 17.4449 7.41805C17.4449 7.41805 18.3186 5.98051 20.1943 4.94861L21.9742 6.9484C21.9742 6.9484 20.2627 7.51235 19.1162 9.45816C18.1303 11.261 17.3714 15.1168 19.1605 17.4819C19.1605 17.4819 21.1629 20.3212 24.685 17.3144C24.685 17.3144 31.161 11.5118 24.0209 3.12259C24.0209 3.12259 23.6307 2.77773 24.0688 2.96515C27.2246 5.26275 31.0034 8.29272 31.3936 15.8544C31.2396 25.0241 25.099 31.5701 16.1324 31.5701C7.35296 31.5699 0.527999 24.2435 0.791466 15.5719Z" fill="white"/>
</g>
<defs>
<clipPath id="clip0_2_25">
<rect width="32" height="32" fill="white"/>
</clipPath>
</defs>
</svg>
